<?xml version="1.0" standalone="no"?>
<!DOCTYPE svg PUBLIC "-//W3C//DTD SVG 20010904//EN"
 "http://www.w3.org/TR/2001/REC-SVG-20010904/DTD/svg10.dtd">
<svg version="1.0" xmlns="http://www.w3.org/2000/svg"
 width="512.000000pt" height="512.000000pt" viewBox="0 0 512.000000 512.000000"
 preserveAspectRatio="xMidYMid meet">
<metadata>
Created by potrace 1.15, written by Peter Selinger 2001-2017
</metadata>
<g transform="translate(0.000000,512.000000) scale(0.100000,-0.100000)"
fill="#000000" stroke="none">
<path d="M203 4958 c-174 -172 -196 -198 -191 -231 3 -19 32 5 192 163 103
102 192 193 197 203 8 14 5 17 -17 17 -21 0 -60 -33 -181 -152z"/>
<path d="M303 4858 c-140 -139 -264 -265 -275 -281 -10 -15 -18 -37 -16 -50 3
-18 49 23 292 263 158 157 292 293 297 303 8 14 5 17 -17 17 -22 0 -75 -47
-281 -252z"/>
<path d="M402 4758 c-194 -194 -362 -365 -373 -381 -11 -15 -19 -37 -17 -50 4
-18 67 40 392 363 213 212 392 393 397 403 8 14 5 17 -18 17 -22 0 -89 -62
-381 -352z"/>
<path d="M502 4658 c-249 -249 -462 -465 -473 -481 -11 -15 -19 -37 -17 -50 4
-18 84 57 492 463 268 267 492 493 497 503 8 14 5 17 -18 17 -22 0 -104 -76
-481 -452z"/>
<path d="M602 4558 c-304 -304 -562 -565 -573 -581 -11 -15 -19 -37 -17 -50 4
-18 101 75 592 563 323 322 592 593 597 603 8 14 5 17 -18 17 -23 0 -118 -91
-581 -552z"/>
<path d="M702 4458 c-359 -359 -662 -665 -673 -681 -11 -15 -19 -37 -17 -50 4
-18 118 92 692 663 378 377 692 693 697 703 8 14 5 17 -18 17 -23 0 -133 -106
-681 -652z"/>
<path d="M802 4358 c-414 -414 -762 -765 -773 -781 -11 -15 -19 -37 -17 -50 4
-18 136 109 792 763 433 432 792 793 797 803 8 14 5 17 -18 17 -23 0 -148
-120 -781 -752z"/>
<path d="M902 4258 c-469 -469 -862 -865 -873 -881 -11 -15 -19 -37 -17 -50 4
-18 153 126 892 863 488 487 892 893 897 903 8 14 5 17 -18 17 -23 0 -162
-135 -881 -852z"/>
<path d="M1002 4158 c-524 -524 -962 -965 -973 -981 -11 -15 -19 -37 -17 -50
4 -18 170 144 992 963 543 542 992 993 997 1003 8 14 5 17 -18 17 -23 0 -177
-149 -981 -952z"/>
<path d="M1102 4058 c-579 -579 -1062 -1065 -1073 -1081 -11 -15 -19 -37 -17
-50 4 -18 127 100 742 713 l737 735 -45 -94 c-25 -52 -46 -101 -46 -110 0 -8
-313 -328 -695 -711 -578 -579 -695 -700 -695 -723 0 -15 3 -27 7 -27 4 0 308
300 675 667 368 367 668 663 668 658 0 -6 -5 -39 -11 -75 l-10 -65 -664 -665
c-554 -554 -665 -670 -665 -693 0 -15 3 -27 7 -27 4 0 304 296 665 657 l658
658 0 -65 0 -65 -665 -665 c-554 -554 -665 -670 -665 -693 0 -15 3 -27 7 -27
4 0 305 298 669 661 l662 662 7 -58 8 -57 -677 -677 c-563 -563 -676 -681
-676 -704 0 -15 3 -27 7 -27 4 0 310 302 680 672 431 431 674 667 677 657 2
-7 7 -32 11 -53 l7 -39 -691 -691 c-576 -576 -691 -696 -691 -719 0 -15 3 -27
7 -27 4 0 319 311 699 691 l691 691 13 -52 13 -52 -712 -712 c-593 -593 -711
-716 -711 -739 0 -15 3 -27 7 -27 4 0 328 320 720 712 392 392 714 710 716
708 2 -3 11 -23 20 -45 l15 -40 -739 -740 c-616 -618 -739 -745 -739 -768 0
-15 3 -27 7 -27 4 0 341 334 749 741 l742 742 22 -43 22 -43 -289 -289 c-158
-159 -322 -315 -363 -346 -102 -75 -210 -182 -278 -272 -31 -41 -181 -201
-334 -356 -225 -227 -278 -286 -278 -307 0 -15 3 -27 7 -27 4 0 108 100 231
222 200 200 221 218 204 178 -10 -25 -27 -70 -37 -100 -16 -50 -36 -74 -211
-251 -154 -155 -194 -202 -194 -223 0 -14 3 -26 7 -26 4 0 86 79 183 175 l176
175 -11 -74 -10 -75 -172 -174 c-136 -137 -173 -180 -173 -201 0 -14 3 -26 7
-26 4 0 80 73 170 162 l163 162 0 -64 0 -64 -170 -172 c-133 -134 -170 -177
-170 -198 0 -14 3 -26 7 -26 4 0 82 75 174 166 178 177 169 172 184 96 7 -33
3 -38 -179 -222 -147 -148 -186 -193 -186 -214 0 -14 3 -26 7 -26 4 0 91 84
195 187 103 103 189 185 191 182 1 -2 11 -22 20 -43 l18 -39 -215 -217 c-173
-173 -216 -222 -216 -243 0 -15 3 -27 7 -27 4 0 107 100 230 222 l223 222 29
-34 29 -35 -259 -261 c-209 -210 -259 -266 -259 -287 0 -15 3 -27 7 -27 4 0
129 122 278 271 l272 270 36 -21 c21 -12 37 -25 37 -29 0 -3 -126 -132 -281
-286 -154 -154 -285 -288 -290 -297 -8 -15 -5 -18 17 -18 23 0 81 53 318 289
l291 289 40 -15 c22 -9 42 -18 44 -20 3 -2 -113 -122 -257 -266 -144 -145
-262 -266 -262 -270 0 -4 12 -7 27 -7 21 0 78 51 292 264 l266 265 52 -12 53
-12 -236 -235 c-129 -129 -240 -243 -245 -253 -8 -14 -5 -17 17 -17 22 0 74
47 276 247 l248 247 52 -3 c29 -1 55 -5 57 -7 3 -3 -99 -109 -227 -237 -128
-128 -232 -236 -232 -240 0 -4 12 -7 27 -7 21 0 74 47 268 240 l241 240 44 0
c25 0 50 -4 57 -8 8 -5 -58 -78 -203 -222 -118 -118 -220 -223 -225 -232 -8
-15 -5 -18 17 -18 22 0 72 45 264 235 l236 235 64 0 64 0 -227 -228 c-125
-125 -227 -231 -227 -235 0 -4 12 -7 27 -7 21 0 73 46 263 235 l236 235 64 0
64 0 -227 -228 c-125 -125 -227 -231 -227 -235 0 -4 12 -7 27 -7 21 0 73 46
263 235 l236 235 64 0 64 0 -227 -228 c-125 -125 -227 -231 -227 -235 0 -4 12
-7 27 -7 21 0 73 46 263 235 l236 235 64 0 64 0 -227 -228 c-125 -125 -227
-231 -227 -235 0 -4 12 -7 27 -7 21 0 73 46 263 235 l236 235 64 0 64 0 -227
-228 c-125 -125 -227 -231 -227 -235 0 -4 12 -7 27 -7 21 0 73 46 263 235
l236 235 64 0 64 0 -227 -228 c-125 -125 -227 -231 -227 -235 0 -4 12 -7 27
-7 21 0 73 46 263 235 l236 235 64 0 64 0 -227 -228 c-125 -125 -227 -231
-227 -235 0 -4 12 -7 27 -7 21 0 73 46 263 235 l236 235 64 0 64 0 -227 -228
c-125 -125 -227 -231 -227 -235 0 -4 12 -7 27 -7 21 0 73 46 263 235 l236 235
64 0 64 0 -227 -228 c-125 -125 -227 -231 -227 -235 0 -4 12 -7 27 -7 21 0 73
46 263 235 l236 235 62 0 c34 0 62 4 62 9 0 4 -9 20 -20 34 -26 33 -26 35 11
74 l32 32 27 -37 28 -37 -264 -265 c-145 -146 -264 -269 -264 -273 0 -4 12 -7
27 -7 21 0 76 49 280 252 l253 252 32 -32 33 -32 -213 -213 c-116 -117 -212
-216 -212 -220 0 -4 12 -7 27 -7 21 0 68 42 232 204 l206 204 38 -26 38 -25
-171 -172 c-93 -94 -170 -174 -170 -178 0 -4 12 -7 26 -7 21 0 63 36 194 165
l167 166 46 -18 47 -19 -131 -129 c-151 -150 -162 -165 -123 -165 20 0 58 31
168 138 l141 139 53 -11 52 -11 -110 -110 c-131 -129 -142 -145 -104 -145 20
0 55 29 152 124 l127 123 68 6 69 5 -121 -122 c-67 -68 -121 -126 -121 -129 0
-4 12 -7 26 -7 20 0 59 32 168 138 128 126 147 141 206 161 36 13 85 34 110
48 36 21 10 -10 -135 -158 -153 -156 -177 -184 -158 -187 13 -2 35 6 50 17 16
11 245 237 511 503 398 400 482 489 482 511 0 15 -3 27 -7 27 -4 0 -110 -102
-236 -227 -177 -176 -224 -218 -204 -183 14 25 35 74 48 110 21 61 34 76 211
256 148 151 188 197 188 218 0 14 -3 26 -7 26 -4 0 -85 -77 -180 -172 l-173
-172 7 70 6 69 173 176 c138 140 174 182 174 203 0 22 -3 25 -17 17 -10 -5
-90 -82 -178 -170 l-160 -161 -12 53 -11 52 189 191 c150 151 189 197 189 218
0 14 -3 26 -7 26 -4 0 -93 -85 -197 -190 l-191 -189 -19 45 -19 45 217 218
c172 174 216 223 216 244 0 15 -3 27 -7 27 -4 0 -107 -99 -229 -221 l-222
-221 -26 38 -26 38 255 256 c206 207 255 262 255 283 0 15 -3 27 -7 27 -4 0
-125 -118 -270 -262 l-263 -263 -32 33 -32 32 302 303 c247 249 302 308 302
331 0 22 -3 25 -17 17 -10 -5 -155 -147 -322 -314 l-304 -305 -39 26 -39 25
360 362 c296 296 361 366 361 388 0 15 -3 27 -7 27 -4 0 -177 -169 -384 -376
l-376 -376 -43 22 -43 22 427 427 c351 352 426 432 426 454 0 15 -3 27 -7 27
-4 0 -208 -201 -454 -446 -444 -444 -447 -446 -480 -439 -19 3 -42 9 -53 12
-14 4 90 114 488 512 422 423 506 511 506 534 0 23 -3 26 -17 18 -10 -5 -229
-221 -487 -480 l-470 -470 -23 34 c-13 19 -23 37 -23 42 0 4 230 237 510 518
425 426 510 515 510 538 0 23 -3 26 -17 18 -10 -5 -247 -239 -528 -520 -489
-490 -510 -510 -528 -493 -52 47 -80 13 517 611 461 462 556 561 556 584 0 15
-3 27 -7 27 -4 0 -263 -255 -575 -567 l-568 -568 -32 33 -33 32 608 608 c504
505 607 612 607 635 0 15 -3 27 -7 27 -4 0 -287 -279 -628 -620 l-620 -619
-35 29 -35 29 663 663 c551 552 662 668 662 691 0 15 -3 27 -7 27 -4 0 -312
-304 -684 -676 l-677 -677 -41 24 -42 23 726 726 c605 605 725 730 725 753 0
15 -3 27 -7 27 -4 0 -341 -333 -749 -741 l-741 -741 -43 22 -43 22 792 792
c661 661 791 796 791 819 0 15 -3 27 -7 27 -4 0 -372 -365 -818 -810 l-810
-810 -49 16 -48 17 866 866 c724 725 866 871 866 894 0 15 -3 27 -7 27 -4 0
-406 -399 -894 -886 l-885 -885 -52 7 c-29 3 -52 9 -52 13 0 3 425 431 945
951 800 800 945 950 945 973 0 23 -3 26 -16 19 -9 -5 -606 -599 -1327 -1320
-722 -722 -1315 -1312 -1320 -1312 -4 0 -7 26 -7 57 l0 58 1335 1335 c1122
1122 1335 1340 1335 1363 0 15 -3 27 -7 27 -4 0 -572 -564 -1261 -1252 -1138
-1137 -1253 -1250 -1247 -1216 4 21 5 38 2 38 -2 0 -24 -7 -48 -15 -37 -13
127 155 1244 1273 708 708 1294 1298 1303 1310 8 12 14 32 12 45 -4 18 -172
-146 -987 -958 l-982 -980 41 91 c22 51 40 98 40 105 0 8 425 439 945 959 790
791 945 950 945 973 0 15 -3 27 -7 27 -4 0 -419 -411 -921 -912 -503 -502
-911 -904 -908 -893 3 11 12 49 20 85 l15 64 846 846 c465 465 845 849 845
853 0 4 -12 7 -27 7 -23 0 -161 -134 -840 -812 -663 -663 -813 -807 -809 -783
3 17 8 50 11 75 5 45 16 56 726 765 396 396 725 728 730 738 8 14 5 17 -18 17
-23 0 -139 -112 -725 -697 l-698 -698 0 65 0 65 616 615 c338 338 620 623 625
633 8 14 5 17 -18 17 -23 0 -125 -97 -625 -597 -328 -328 -599 -595 -601 -592
-3 2 -7 27 -11 54 l-6 50 526 525 c289 289 530 533 535 543 8 14 5 17 -18 17
-23 0 -112 -85 -538 -510 -281 -280 -513 -510 -517 -510 -3 0 -11 21 -17 47
l-12 47 455 456 c251 250 456 459 456 463 0 4 -12 7 -27 7 -22 0 -104 -77
-463 -435 -239 -239 -438 -435 -441 -435 -3 0 -14 18 -24 41 l-19 40 387 387
c213 213 387 391 387 395 0 4 -12 7 -27 7 -22 0 -94 -67 -400 -372 -205 -204
-374 -370 -376 -367 -2 2 -13 20 -25 39 l-21 36 315 314 c173 173 320 323 325
333 8 14 5 17 -17 17 -23 0 -84 -56 -341 -312 l-314 -313 -29 35 -29 35 269
270 c149 149 270 274 270 278 0 4 -12 7 -27 7 -21 0 -77 -50 -287 -259 l-261
-259 -35 29 -34 29 222 223 c122 123 222 226 222 230 0 4 -12 7 -27 7 -21 0
-70 -43 -242 -214 l-216 -214 -38 26 -38 25 181 182 c99 100 180 184 180 188
0 4 -12 7 -26 7 -21 0 -64 -37 -204 -176 l-177 -175 -39 18 c-21 9 -41 19 -43
20 -3 2 61 70 142 151 81 82 147 152 147 155 0 4 -12 7 -26 7 -20 0 -60 -33
-174 -145 l-147 -146 -47 13 c-25 7 -46 15 -46 18 0 3 50 55 111 115 130 129
141 145 103 145 -20 0 -56 -29 -154 -126 l-129 -126 -57 7 -56 7 111 112 c61
62 111 116 111 119 0 4 -12 7 -26 7 -20 0 -55 -29 -147 -119 l-122 -119 -73
-9 -72 -9 120 121 c66 67 120 125 120 128 0 4 -12 7 -26 7 -20 0 -59 -32 -168
-139 -129 -128 -147 -142 -211 -166 -38 -14 -90 -37 -115 -51 -36 -20 -9 11
138 159 100 101 182 186 182 190 0 4 -12 7 -27 7 -23 0 -198 -170 -1081 -1052z
m671 132 c20 -8 37 -17 37 -20 0 -3 -45 -50 -100 -105 -110 -109 -116 -109
-81 6 14 42 32 74 58 101 20 21 40 37 43 36 3 -2 22 -10 43 -18z m1223 3 l26
-16 -644 -644 c-353 -354 -646 -643 -649 -643 -4 0 -17 17 -29 37 l-21 37 603
603 c544 545 630 626 686 642 1 1 14 -7 28 -16z m-1063 -59 c15 -4 27 -9 27
-13 0 -3 -81 -87 -180 -186 l-180 -180 0 65 0 65 133 133 c104 104 136 132
152 127 11 -3 32 -8 48 -11z m282 -564 l-560 -560 -22 43 -22 42 497 498 497
497 70 19 c39 10 77 19 85 20 8 0 -237 -251 -545 -559z m865 475 c0 -6 -285
-295 -633 -643 l-634 -633 -28 36 -28 37 644 644 644 644 17 -37 c10 -21 18
-43 18 -48z m-960 38 c2 -2 -108 -116 -245 -253 -167 -167 -252 -245 -257
-237 -4 7 -8 32 -8 57 l0 45 206 206 206 206 46 -10 c26 -5 49 -11 52 -14z
m-60 -468 c-255 -255 -467 -461 -471 -457 -4 4 -12 24 -19 46 l-12 39 408 408
407 407 71 10 c39 5 73 10 76 11 3 0 -204 -208 -460 -464z m222 447 c14 -6
-60 -86 -361 -386 l-379 -379 -11 39 c-6 21 -11 46 -11 54 0 8 150 165 332
347 329 329 333 333 373 332 22 0 48 -4 57 -7z m817 -167 c1 -40 -2 -43 -591
-632 l-592 -593 -34 32 -33 32 618 618 c655 655 631 634 632 543z m-5 -188
l-7 -65 -527 -527 -528 -528 -33 23 c-19 13 -36 25 -39 27 -2 2 252 260 565
573 313 313 571 568 572 566 2 -2 1 -33 -3 -69z m-402 -660 l-520 -520 -47 18
-47 18 498 498 c274 274 501 494 504 489 3 -5 32 4 65 21 129 65 85 14 -453
-524z m493 369 c-8 -31 -15 -65 -15 -74 0 -9 -186 -203 -413 -430 l-414 -414
-58 7 -57 8 483 483 c266 266 484 482 486 480 2 -1 -4 -28 -12 -60z m-81 -277
c-53 -130 -69 -150 -291 -371 -229 -227 -238 -234 -348 -253 -38 -7 -24 9 310
344 192 192 350 349 352 347 2 -1 -9 -32 -23 -67z m-1488 -343 c5 -14 -28 -53
-147 -172 -85 -85 -158 -154 -164 -154 -5 -1 -50 -16 -99 -35 l-89 -34 229
230 229 229 17 -22 c10 -13 20 -31 24 -42z m94 -126 c0 -3 -35 -40 -77 -82
l-78 -76 -70 -6 -70 -7 120 120 119 120 28 -32 c15 -18 27 -34 28 -37z m-2
-207 l-103 -103 -17 33 c-9 17 -17 39 -18 47 0 8 39 54 87 102 l87 88 33 -32
33 -32 -102 -103z m179 39 l32 -28 -124 -124 -123 -123 -21 34 c-12 19 -21 38
-21 44 0 10 211 225 220 225 3 -1 19 -13 37 -28z m10 -249 c-83 -84 -153 -150
-156 -148 -3 2 -15 20 -25 40 l-20 36 133 133 134 134 42 -22 43 -21 -151
-152z m632 32 l-116 -115 -64 0 -64 0 90 90 c53 53 98 90 110 90 11 1 49 11
85 24 36 13 67 24 70 24 3 1 -47 -50 -111 -113z m-385 83 c22 -6 43 -13 45
-15 10 -8 -123 -131 -135 -126 -9 3 -14 -2 -14 -14 0 -18 -215 -242 -224 -232
-2 2 -13 20 -25 39 l-21 35 162 162 c90 90 165 163 167 163 2 0 22 -5 45 -12z
m930 -40 c-87 -171 -131 -228 -368 -466 -249 -251 -242 -246 -245 -152 -1 33
17 53 316 352 175 175 319 318 321 318 1 0 -10 -23 -24 -52z m-770 -69 l-82
-82 -52 13 -52 12 68 69 68 69 66 0 65 0 -81 -81z m-305 -305 l-103 -103 -24
40 -24 41 103 104 103 103 23 -41 24 -42 -102 -102z m184 32 l28 -20 -118
-118 -117 -117 -23 34 c-13 19 -23 37 -23 42 0 16 204 212 214 206 6 -4 23
-16 39 -27z m1697 -151 c-42 -42 -66 -58 -109 -71 -30 -9 -78 -27 -106 -41
l-50 -25 86 87 c89 90 111 102 194 104 l39 1 -54 -55z m-1685 -22 c-6 -67 -7
-69 -73 -135 l-66 -67 -23 34 c-13 19 -23 37 -23 42 0 7 181 193 188 193 3 0
1 -30 -3 -67z m558 15 c-5 -7 -68 -91 -139 -187 l-129 -174 -7 44 -8 44 142
142 c130 131 167 165 141 131z m917 -1 c0 -1 -111 -112 -246 -247 l-246 -245
32 65 c88 176 210 303 385 397 54 29 75 38 75 30z m374 -415 c8 -14 -56 -69
-88 -76 -38 -9 -85 -57 -92 -94 -3 -17 -24 -47 -46 -68 l-40 -39 4 68 4 67 64
66 c36 36 74 70 85 74 26 11 102 12 109 2z m-748 -60 c-13 -26 -31 -73 -40
-103 -13 -43 -29 -67 -74 -112 l-59 -58 8 53 c4 29 8 61 8 72 1 15 165 196
178 196 2 0 -8 -22 -21 -48z m913 -152 c1 -33 -15 -51 -262 -298 -145 -144
-266 -260 -270 -256 -4 4 -7 30 -7 58 l0 51 177 177 178 178 52 0 53 0 0 52
c0 45 4 56 33 86 32 33 32 33 39 10 3 -13 6 -39 7 -58z m-303 -92 l44 -3 -140
-140 -140 -140 0 65 0 65 93 93 c58 59 93 87 95 78 2 -10 18 -16 48 -18z m403
-16 c8 -16 -24 -52 -212 -240 l-222 -222 -65 0 -65 0 240 240 c227 227 242
240 277 240 26 0 40 -6 47 -18z m-111 -339 l-123 -123 -65 0 -65 0 185 185
185 185 3 -62 3 -62 -123 -123z"/>
<path d="M4696 450 c-229 -228 -422 -423 -427 -432 -8 -15 -5 -18 18 -18 22 0
93 66 411 383 211 210 392 394 403 410 11 15 19 37 17 50 -4 18 -72 -45 -422
-393z"/>
<path d="M4796 350 c-174 -173 -322 -323 -327 -332 -8 -15 -5 -18 17 -18 23 0
80 52 312 282 156 156 293 295 303 311 11 15 19 37 17 50 -4 18 -54 -28 -322
-293z"/>
<path d="M4896 250 c-119 -118 -222 -223 -227 -232 -8 -15 -5 -18 17 -18 21 0
65 37 211 183 205 202 226 227 221 260 -3 19 -37 -11 -222 -193z"/>
<path d="M4996 150 c-136 -133 -149 -150 -111 -150 18 0 49 23 111 82 102 98
127 130 122 161 -3 19 -19 7 -122 -93z"/>
</g>
</svg>
